# xmcd
#
# Track frame offsets:
#   150
#   14184
#   27595
#   44211
#   58562
#   74254
#   95012
#   111732
#   123663
#   141179
#
# Disc length: 2512 seconds
#
# Revision: 0
# Processed by: cddbd v1.4PL0 Copyright (c) Steve Scherf et al.
# Submitted via: uFREEDB 1.6.0
#
DISCID=a609ce0a
DTITLE=Francisco Cespedes - La vida Loca
DYEAR=2002
DGENRE=Blues
TTITLE0=LLorando por dentro
TTITLE1=Donde esta la vida
TTITLE2=Todo es un misterio
TTITLE3=Vida loca
TTITLE4=Que hago contigo
TTITLE5=Que tu te vas
TTITLE6=Quedate mas
TTITLE7=Vida mia
TTITLE8=Todo igual a nada
TTITLE9=Olvidarte
EXTD=
EXTT0=
EXTT1=
EXTT2=
EXTT3=
EXTT4=
EXTT5=
EXTT6=
EXTT7=
EXTT8=
EXTT9=
PLAYORDER=
